<?xml version="1.0" encoding="utf-8"?>
<!-- Generator: Adobe Illustrator 22.1.0, SVG Export Plug-In . SVG Version: 6.00 Build 0)  -->
<svg version="1.1" id="Layer_1" xmlns="http://www.w3.org/2000/svg" xmlns:xlink="http://www.w3.org/1999/xlink" x="0px" y="0px"
	 viewBox="0 0 15.6 15.8" style="enable-background:new 0 0 15.6 15.8;" xml:space="preserve">
<style type="text/css">
	.st0{clip-path:url(#SVGID_2_);fill:#FFFFFF;}
	.st1{clip-path:url(#SVGID_4_);}
	.st2{fill:#FFFFFF;}
</style>
<g>
	<g>
		<g>
			<defs>
				<rect id="SVGID_1_" x="0.2" y="0.2" width="15.3" height="15.3"/>
			</defs>
			<clipPath id="SVGID_2_">
				<use xlink:href="#SVGID_1_"  style="overflow:visible;"/>
			</clipPath>
			<path class="st0" d="M7.8,15.5c-4.2,0-7.6-3.4-7.6-7.6s3.4-7.6,7.6-7.6s7.6,3.4,7.6,7.6S12,15.5,7.8,15.5z M7.8,1.2
				c-3.6,0-6.6,3-6.6,6.6s3,6.7,6.6,6.7s6.7-3,6.7-6.6S11.4,1.2,7.8,1.2z"/>
		</g>
	</g>
	<g>
		<g>
			<defs>
				<rect id="SVGID_3_" x="0.2" y="0.2" width="15.3" height="15.3"/>
			</defs>
			<clipPath id="SVGID_4_">
				<use xlink:href="#SVGID_3_"  style="overflow:visible;"/>
			</clipPath>
			<g class="st1">
				<g>
					<path class="st2" d="M5.8,11.1l3.9-3.2L5.8,4.7l0.5-0.6l4.2,3.5c0.2,0,0.2,0.3,0.2,0.3c0,0.1,0,0.2-0.1,0.3l-4.2,3.5L5.8,11.1z
						"/>
					<path class="st2" d="M6.3,11.5L6,11.1l3.9-3.2L6,4.7l0.3-0.4l4.1,3.4c0.1,0,0.1,0.1,0.1,0.2s0,0.1-0.1,0.2L6.3,11.5z"/>
				</g>
			</g>
		</g>
	</g>
</g>
</svg>
