<?xml version="1.0" encoding="utf-8"?>
<!-- Generator: Adobe Illustrator 22.1.0, SVG Export Plug-In . SVG Version: 6.00 Build 0)  -->
<svg version="1.1" id="Layer_1" xmlns="http://www.w3.org/2000/svg" xmlns:xlink="http://www.w3.org/1999/xlink" x="0px" y="0px"
	 viewBox="0 0 489 264.7" style="enable-background:new 0 0 489 264.7;" xml:space="preserve">
<style type="text/css">
	.st0{clip-path:url(#SVGID_2_);fill:#0D3AFF;}
	.st1{clip-path:url(#SVGID_2_);fill:#FFFFFF;}
	.st2{clip-path:url(#SVGID_4_);fill:#5473FF;}
	.st3{clip-path:url(#SVGID_4_);fill:#B5C2FF;}
	.st4{clip-path:url(#SVGID_4_);fill:#FFFFFF;}
	.st5{clip-path:url(#SVGID_6_);fill:#FFFFFF;}
	.st6{fill:#5AF7DC;}
	.st7{clip-path:url(#SVGID_8_);fill:#0D3AFF;}
	.st8{clip-path:url(#SVGID_8_);fill:#FFFFFF;}
	.st9{clip-path:url(#SVGID_10_);fill:#5473FF;}
	.st10{clip-path:url(#SVGID_10_);fill:#B5C2FF;}
	.st11{clip-path:url(#SVGID_10_);fill:#FFFFFF;}
	.st12{clip-path:url(#SVGID_12_);fill:#FFFFFF;}
</style>
<g>
	<defs>
		<rect id="SVGID_1_" y="0" width="489" height="235.8"/>
	</defs>
	<clipPath id="SVGID_2_">
		<use xlink:href="#SVGID_1_"  style="overflow:visible;"/>
	</clipPath>
	<path class="st0" d="M233.3,118.9c0,64.3-52.1,116.4-116.4,116.4S0.4,183.2,0.4,118.9C0.4,54.7,52.5,2.5,116.8,2.5
		S233.3,54.7,233.3,118.9"/>
	<path class="st1" d="M233.3,118.9h-0.4c0,32-13,61-34,82c-21,21-50,34-82,34c-32,0-61-13-82-34c-21-21-34-50-34-82s13-61,34-82
		c21-21,50-34,82-34c32,0,61,13,82,34c21,21,34,50,34,82H233.3h0.4c0-64.5-52.3-116.8-116.8-116.8C52.3,2.1,0,54.4,0,118.9
		c0,64.5,52.3,116.8,116.8,116.8c64.5,0,116.8-52.3,116.8-116.8H233.3z"/>
</g>
<g>
	<defs>
		<path id="SVGID_3_" d="M0.4,118.9c0,64.3,52.1,116.4,116.4,116.4s116.4-52.1,116.4-116.4c0-64.3-52.1-116.4-116.4-116.4
			S0.4,54.7,0.4,118.9"/>
	</defs>
	<clipPath id="SVGID_4_">
		<use xlink:href="#SVGID_3_"  style="overflow:visible;"/>
	</clipPath>
	<path class="st2" d="M132.3,11L76.2,50.3l11.9,16l61.1-30L132.3,11z M128.5,81.4l-25,6.1L53.2,216c8.3,5.4,17.3,9.8,26.8,13l4-10.7
		h58.5l4.7,12.7c12-3.3,23.3-8.4,33.5-15.1L128.5,81.4z M93.9,190.6l18.9-51.2l19.2,51.2H93.9z"/>
	<path class="st3" d="M180.7,215.8c-10.2,6.7-21.4,11.9-33.5,15.1l0.1,0.4c12-3.3,23.3-8.4,33.5-15.1L180.7,215.8z M53.2,216
		l-0.2,0.4c8.3,5.4,17.3,9.8,26.8,13L80,229C70.4,225.8,61.5,221.4,53.2,216"/>
	<path class="st4" d="M86.6,54.3l49.8-36.1l10.5,16.3L91,61.3L86.6,54.3z M151,198l-34.3-91.1L82.3,198H151z M110.5,83.4l12.5-4.9
		l71.3,184.8h-18.9L155,210.6H77.6l-19.5,52.7H41.5L110.5,83.4z"/>
</g>
<g>
	<defs>
		<rect id="SVGID_5_" y="0" width="489" height="235.8"/>
	</defs>
	<clipPath id="SVGID_6_">
		<use xlink:href="#SVGID_5_"  style="overflow:visible;"/>
	</clipPath>
	<path class="st5" d="M233.3,118.9h-0.4c0,32-13,61-34,82c-21,21-50,34-82,34s-61-13-82-34c-21-21-34-50-34-82s13-61,34-82
		c21-21,50-34,82-34s61,13,82,34c21,21,34,50,34,82H233.3h0.4c0-64.5-52.3-116.8-116.8-116.8S0,54.4,0,118.9s52.3,116.8,116.8,116.8
		c64.5,0,116.8-52.3,116.8-116.8H233.3z"/>
</g>
<path class="st6" d="M196.7,49l-9.3,3.7l0.3,0.8l9.3-3.7L196.7,49z M181.2,55.1l-9.3,3.7l0.3,0.8l9.3-3.7L181.2,55.1z M165.7,61.2
	l-9.3,3.7l0.3,0.8L166,62L165.7,61.2z M150.2,67.3l-9.3,3.7l0.3,0.8l9.3-3.7L150.2,67.3z M134.7,73.4l-9.3,3.7l0.3,0.8l9.3-3.7
	L134.7,73.4z M119.2,79.5l-9.3,3.7l0.3,0.8l9.3-3.7L119.2,79.5z M103.7,85.6l-9.3,3.7l0.3,0.8l9.3-3.7L103.7,85.6z M88.3,91.7
	L79,95.3l0.3,0.8l9.3-3.7L88.3,91.7z M72.8,97.8l-9.3,3.7l0.3,0.8l9.3-3.7L72.8,97.8z M57.3,103.8l-9.3,3.7l0.3,0.8l9.3-3.7
	L57.3,103.8z M41.8,109.9l-9.3,3.7l0.3,0.8l9.3-3.7L41.8,109.9z M26.3,116l-9.3,3.7l0.3,0.8l9.3-3.7L26.3,116z"/>
<g>
	<defs>
		<rect id="SVGID_7_" y="0" width="489" height="235.8"/>
	</defs>
	<clipPath id="SVGID_8_">
		<use xlink:href="#SVGID_7_"  style="overflow:visible;"/>
	</clipPath>
	<path class="st7" d="M488.6,116.8c0,64.3-52.1,116.4-116.4,116.4s-116.4-52.1-116.4-116.4S307.9,0.4,372.2,0.4
		S488.6,52.5,488.6,116.8"/>
	<path class="st8" d="M488.6,116.8h-0.4c0,32-13,61-34,82c-21,21-50,34-82,34s-61-13-82-34c-21-21-34-50-34-82s13-61,34-82
		c21-21,50-34,82-34s61,13,82,34c21,21,34,50,34,82H488.6h0.4C489,52.3,436.7,0,372.2,0c-64.5,0-116.8,52.3-116.8,116.8
		s52.3,116.8,116.8,116.8S489,181.4,489,116.8H488.6z"/>
</g>
<g>
	<defs>
		<path id="SVGID_9_" d="M255.7,116.8c0,64.3,52.1,116.4,116.4,116.4c64.3,0,116.4-52.1,116.4-116.4S436.5,0.4,372.2,0.4
			C307.9,0.4,255.7,52.5,255.7,116.8"/>
	</defs>
	<clipPath id="SVGID_10_">
		<use xlink:href="#SVGID_9_"  style="overflow:visible;"/>
	</clipPath>
	<path class="st9" d="M370.3,64.6c-33.5,0-65.2,18.1-65.2,53.8c0,34.1,27.4,47.3,51.9,57.8l7.1,3.1c17.5,7.7,30.7,16,30.7,31.4
		c0,12.7-9.9,19.9-23.7,22.2c0.3,0,0.6,0,1,0c21.7,0,41.9-5.9,59.3-16.3c0.4-3.1,0.6-6.3,0.6-9.7c0-25.2-12.3-42.7-47.6-59.6
		l-12.3-5.8c-9.2-4.3-17.2-8.3-22.1-13.2c-3.4-3.4-5.2-7.7-5.2-11.7c0-13.5,11.4-21.5,29.8-21.5c13.8,0,30.7,4.6,43,12l2.8-31
		C406.9,68.9,388.2,64.6,370.3,64.6"/>
	<path class="st10" d="M431.5,216.6c-17.4,10.3-37.6,16.3-59.3,16.3c-0.3,0-0.6,0-1,0c-0.8,0.1-1.7,0.3-2.6,0.4
		c1.2,0,2.4,0.1,3.6,0.1c21.6,0,41.9-5.9,59.2-16.2C431.4,216.9,431.4,216.7,431.5,216.6"/>
	<path class="st11" d="M309.3,251.2l4.3-13.8c12.6,7.4,30.4,14.1,49.8,14.1c27.4,0,46.1-13.5,46.1-36.9c0-21.5-16.3-32.3-39.6-43.3
		l-11.1-5.2c-21.8-10.5-45.2-21.8-45.2-51.9c0-32.9,28.3-49.5,59.9-49.5c18.7,0,36.6,5.8,46.1,12l-4.3,13.5
		c-8.9-5.5-25.5-12.3-43-12.3c-24.9,0-40.3,14.1-40.3,33.5c0,19.1,15.1,28.3,36.6,38.4l12.3,5.8c26.4,12.6,47,25.2,47,55.6
		c0,35-27,53.5-64.9,53.5C338.5,264.7,319.5,257,309.3,251.2"/>
</g>
<polyline class="st6" points="433.7,30.9 432.2,35.7 433,35.9 434.5,31.2 "/>
<path class="st6" d="M430.1,42.1l-3,9.6l0.8,0.3l3-9.6L430.1,42.1z M425.1,58.1l-3,9.6l0.8,0.3l3-9.6L425.1,58.1z M420,74.1l-3,9.6
	l0.8,0.3l3-9.6L420,74.1z M415,90.1l-3,9.6l0.8,0.3l3-9.6L415,90.1z M409.9,106.1l-3,9.6l0.8,0.3l3-9.6L409.9,106.1z M404.9,122.1
	l-3,9.6l0.8,0.3l3-9.6L404.9,122.1z M399.9,138.1l-3,9.6l0.8,0.3l3-9.6L399.9,138.1z M394.8,154l-3,9.6l0.8,0.3l3-9.6L394.8,154z
	 M389.8,170l-3,9.6l0.8,0.3l3-9.6L389.8,170z M384.7,186l-3,9.6l0.8,0.3l3-9.6L384.7,186z M379.7,202l-3,9.6l0.8,0.3l3-9.6
	L379.7,202z"/>
<polyline class="st6" points="374.6,218 373.1,222.8 373.9,223 375.4,218.3 "/>
<g>
	<defs>
		<rect id="SVGID_11_" y="0" width="489" height="235.8"/>
	</defs>
	<clipPath id="SVGID_12_">
		<use xlink:href="#SVGID_11_"  style="overflow:visible;"/>
	</clipPath>
	<path class="st12" d="M488.6,116.8h-0.4c0,32-13,61-34,82c-21,21-50,34-82,34s-61-13-82-34c-21-21-34-50-34-82s13-61,34-82
		c21-21,50-34,82-34s61,13,82,34c21,21,34,50,34,82H488.6h0.4C489,52.3,436.7,0,372.2,0S255.3,52.3,255.3,116.8
		c0,64.5,52.3,116.8,116.8,116.8S489,181.4,489,116.8H488.6z"/>
</g>
<g>
</g>
<g>
</g>
<g>
</g>
<g>
</g>
<g>
</g>
<g>
</g>
</svg>
