<?xml version="1.0" encoding="utf-8"?>
<!-- Generator: Adobe Illustrator 22.1.0, SVG Export Plug-In . SVG Version: 6.00 Build 0)  -->
<svg version="1.1" id="Layer_1" xmlns="http://www.w3.org/2000/svg" xmlns:xlink="http://www.w3.org/1999/xlink" x="0px" y="0px"
	 viewBox="0 0 1274 135.9" style="enable-background:new 0 0 1274 135.9;" xml:space="preserve">
<style type="text/css">
	.st0{clip-path:url(#SVGID_2_);fill:none;stroke:#80C9C3;stroke-width:0.75;stroke-miterlimit:10;}
	.st1{clip-path:url(#SVGID_2_);fill:#FFFFFF;}
</style>
<g>
	<defs>
		<rect id="SVGID_1_" width="1274" height="135.9"/>
	</defs>
	<clipPath id="SVGID_2_">
		<use xlink:href="#SVGID_1_"  style="overflow:visible;"/>
	</clipPath>
	<path class="st0" d="M0,133.7h1274 M0,2.4h1274"/>
	<path class="st1" d="M110.4,135.9c19,0,33-6.9,37.2-9.8l-2.3-9.2c-8.1,5-18.6,9.6-33,9.6c-32.4,0-47.6-24.6-47.6-56.8
		c0-37.2,17.7-60.5,47.4-60.5c13.2,0,23.8,4.6,30.5,9.4l2.1-9.6c-5.8-4.2-18.4-9-33.4-9C74.2,0,50,28.6,50,71
		C50,111.9,74.7,135.9,110.4,135.9 M192.6,133.6h12.9V74.3h70.3v59.3h12.9V2.7h-12.9v62.4h-70.3V2.7h-12.9V133.6z M328.5,133.6h11.9
		l14-37.8h55.5l14.6,37.8h13.6L386.9,1l-9,3.5L328.5,133.6z M357.7,86.8l24.6-65.3L407,86.8H357.7z M476.1,133.6h10.9L490.3,24h0.6
		l45.1,87.7h6.5L584.8,24h0.6l5,109.6H604L596.9,2.7h-12.1l-44,90.8l-47-90.8h-12.1L476.1,133.6z M654.1,133.6h12.9V82.5h25.3
		c31.7,0,47.8-13.8,47.8-39c0-15.2-6.1-25.9-15.2-32.4c-8.1-5.8-18.6-8.4-36.3-8.4h-34.4V133.6z M667.1,73.3V11.9h23.4
		c23.2,0,35.3,9.6,35.3,31.7s-13.6,29.6-39.9,29.6H667.1z M783.7,133.6h12.9V2.7h-12.9V133.6z M898.1,135.9c37.2,0,57-30.5,57-67.8
		s-19.8-68-57-68c-36.9,0-56.6,30.7-56.6,68S861.2,135.9,898.1,135.9 M898.1,126.7c-28,0-42-24.6-42-58.7c0-33.4,14.2-58.9,42-58.9
		c28.4,0,42.4,25,42.4,58.9C940.5,102.1,926.5,126.7,898.1,126.7 M999.6,133.6h10.4V25.3l78.7,108.3h9.6V2.7h-10.4v108.5L1009.2,2.7
		h-9.6V133.6z M1179.9,135.9c25.7,0,44-12.5,44-36.3c0-20.7-14-29.2-31.9-37.8l-8.3-4c-14.6-6.9-24.8-13.2-24.8-26.1
		c0-13.2,10.4-22.8,27.3-22.8c11.9,0,23.2,4.6,29.2,8.3l2.9-9.2C1211.9,4,1199.8,0,1187,0c-21.5,0-40.7,11.3-40.7,33.6
		c0,20.5,15.9,28.2,30.7,35.3l7.5,3.5c15.9,7.5,26.9,14.8,26.9,29.4c0,15.9-12.7,25-31.3,25c-13.1,0-25.3-4.6-33.8-9.6l-2.9,9.4
		C1150.3,130.7,1163.2,135.9,1179.9,135.9"/>
</g>
<g>
</g>
<g>
</g>
<g>
</g>
<g>
</g>
<g>
</g>
<g>
</g>
</svg>
