<?xml version="1.0" encoding="utf-8"?>
<!-- Generator: Adobe Illustrator 22.1.0, SVG Export Plug-In . SVG Version: 6.00 Build 0)  -->
<svg version="1.1" id="Layer_1" xmlns="http://www.w3.org/2000/svg" xmlns:xlink="http://www.w3.org/1999/xlink" x="0px" y="0px"
	 viewBox="0 0 622 316.1" style="enable-background:new 0 0 622 316.1;" xml:space="preserve">
<style type="text/css">
	.st0{fill:#FFFFFF;}
</style>
<g>
	<path class="st0" d="M39,12.8l2.5-1l14,36.4h-3.7l-4-10.4H32.5l-3.8,10.4h-3.3L39,12.8z M46.9,35.4l-6.8-17.9l-6.8,17.9H46.9z"/>
	<path class="st0" d="M77.2,14.9H65.7l0.8-2.5h26.3L92,14.9H80.8v33.4h-3.6C77.2,48.3,77.2,14.9,77.2,14.9z"/>
	<path class="st0" d="M109.7,12.3h3.6v33.4h15.8l-0.8,2.5h-18.6C109.7,48.2,109.7,12.3,109.7,12.3z"/>
	<path class="st0" d="M146.4,12.3h19.2l-0.8,2.5h-14.9v14.6h12.8l-0.8,2.5h-12v13.8h16.7l-0.8,2.5h-19.4V12.3z M150,7.1l9.8-7.1
		l2.1,3.2l-11,5.3L150,7.1z"/>
	<path class="st0" d="M191.4,14.9h-11.5l0.8-2.5H207l-0.8,2.5H195v33.4h-3.6V14.9z"/>
	<path class="st0" d="M224.1,12.3h3.6v36h-3.6V12.3z"/>
	<path class="st0" d="M245.7,31.1c0-11.6,6.7-19.5,16.8-19.5c4.1,0,7.6,1.3,9.2,2.5l-0.6,2.6c-1.8-1.3-4.8-2.6-8.4-2.6
		c-8.1,0-13,6.4-13,16.6c0,8.8,4.2,15.6,13.1,15.6c4,0,6.8-1.3,9.1-2.6l0.6,2.5c-1.1,0.8-5,2.7-10.2,2.7
		C252.5,48.9,245.7,42.3,245.7,31.1z"/>
	<path class="st0" d="M288.6,30.3c0-10.3,5.4-18.7,15.5-18.7c10.2,0,15.7,8.4,15.7,18.7s-5.4,18.6-15.7,18.6
		C294,48.9,288.6,40.5,288.6,30.3z M315.8,30.3c0-9.3-3.8-16.2-11.6-16.2c-7.6,0-11.5,7-11.5,16.2c0,9.3,3.8,16.1,11.5,16.1
		S315.8,39.6,315.8,30.3z"/>
	<path class="st0" d="M358.8,12.3h3.3l12.9,25l12.1-24.9h3.3l1.9,36h-3.7l-1.4-30.1H387l-11.6,24.1h-1.8l-12.4-24.1H361l-0.9,30.1
		h-3L358.8,12.3z"/>
	<path class="st0" d="M422.1,12.8l2.5-1l14,36.4h-3.7l-4-10.4h-15.3l-3.8,10.4h-3.3L422.1,12.8z M430.1,35.4l-6.8-17.9l-6.8,17.9
		H430.1z"/>
	<path class="st0" d="M455.3,12.3h8.3c6.5,0,10,0.8,12.8,2.5c4.9,3,7.3,8.9,7.3,15.4c0,7-3,12.8-7.6,15.5c-2.6,1.5-6.9,2.5-10.7,2.5
		h-10.1L455.3,12.3L455.3,12.3z M464.3,45.8c4.4,0,8.7-0.9,11.5-3.6c2.6-2.7,3.8-6.5,3.8-11.6c0-4.8-1.1-8.9-3.6-11.6
		c-2.6-2.8-6.8-4.1-12.1-4.1h-5.2v30.9H464.3z"/>
	<path class="st0" d="M501.7,12.3h8.7c7.3,0,14,1.7,14,10.6c0,5.8-3.2,9.1-6.8,10l8.4,15.3h-4l-8-14.7c-0.8,0.1-2.7,0.1-3.8,0.1h-5
		v14.7h-3.6L501.7,12.3L501.7,12.3z M511.1,31.1c6.3,0,9.3-2.1,9.3-8c0-6-3.3-8.3-9.5-8.3h-5.7V31h5.9V31.1z"/>
	<path class="st0" d="M543.1,12.3h3.6v36h-3.6V12.3z"/>
	<path class="st0" d="M566.7,12.3h8.3c6.5,0,10,0.8,12.8,2.5c4.9,3,7.3,8.9,7.3,15.4c0,7-3,12.8-7.6,15.5c-2.6,1.5-6.9,2.5-10.7,2.5
		h-10.1V12.3z M575.7,45.8c4.4,0,8.7-0.9,11.5-3.6c2.6-2.7,3.8-6.5,3.8-11.6c0-4.8-1.1-8.9-3.6-11.6c-2.6-2.8-6.8-4.1-12.1-4.1h-5.2
		v30.9H575.7z"/>
</g>
<path class="st0" d="M290.3,115h1.7l8.9-24.1h-2.5l-6.9,19.8l-7.1-19.8h-3.2L290.3,115z M319.9,115.6c2.2,0,4.1-0.5,5.6-1.6
	s2.5-2.9,2.5-5.2c0-7.9-11.6-6.9-11.6-12.7c0-2.4,2.1-3.8,4.7-3.8c1.7,0,3.7,0.6,5.3,1.6l0.4-1.9c-1.2-0.8-3.4-1.5-5.9-1.5
	c-4.6,0-7.3,2.5-7.3,6.2c0,7.5,11.6,6.8,11.6,12.8c0,2.5-1.9,4.2-5.3,4.2c-2.4,0-4.9-0.9-6.4-1.9l-0.4,1.9
	C314.4,114.6,316.8,115.6,319.9,115.6"/>
<g>
	<g>
		<path class="st0" d="M93.1,294.9h10.7l-0.6,2h-7.4v6.6h6.5l-0.5,2h-6.1v6.1h8.5l-0.5,2H93.1V294.9z"/>
		<path class="st0" d="M112.6,313l0.2-2.3c1.5,0.7,3.1,1.2,4.8,1.2c2.4,0,4.2-0.9,4.2-2.9c0-1.8-1.6-2.7-3.6-3.7l-0.7-0.3
			c-2.2-1-4.9-2.3-4.9-5.4c0-3.4,2.9-5.1,6.1-5.1c1.5,0,3.3,0.3,4.5,0.8l-0.2,2.1c-1.2-0.5-2.6-0.8-3.9-0.8c-2.1,0-3.7,0.9-3.7,2.6
			c0,0.8,0.3,1.4,0.9,1.9c0.5,0.5,1.4,0.9,2.3,1.3l1.2,0.6c3,1.4,4.6,3.2,4.6,5.6c0,3.7-2.8,5.4-6.6,5.4
			C115.8,314,114.1,313.7,112.6,313z"/>
		<path class="st0" d="M137.9,297H132l0.3-2.1h14.2l-0.3,2.1h-5.7v16.7h-2.7L137.9,297L137.9,297z"/>
		<path class="st0" d="M158.8,295.1l1.8-0.4l7.4,19h-3l-1.9-5.2H156l-1.9,5.2h-2.5L158.8,295.1z M162.4,306.5l-2.9-7.6l-2.8,7.6
			H162.4z"/>
		<path class="st0" d="M176.5,294.9h4.6c3.4,0,5.2,0.5,6.6,1.3c2.6,1.6,3.9,4.6,3.9,8.1c0,3.7-1.5,6.7-4,8.1
			c-1.4,0.8-3.5,1.3-5.6,1.3h-5.5V294.9z M181.6,311.6c2.1,0,4-0.3,5.3-1.6c1.3-1.3,1.8-3.1,1.8-5.8c0-2.1-0.6-3.9-1.7-5.3
			c-1.2-1.4-3.1-2-5.5-2h-2.3v14.7L181.6,311.6L181.6,311.6z"/>
		<path class="st0" d="M201,294.9h2.6v18.8H201V294.9z"/>
		<path class="st0" d="M212.9,304.3c0-5.4,2.9-9.8,8.3-9.8c5.4,0,8.4,4.4,8.4,9.8s-2.9,9.8-8.4,9.8
			C215.8,314.1,212.9,309.7,212.9,304.3z M226.7,304.3c0-4.4-1.8-7.6-5.4-7.6c-3.6,0-5.4,3.2-5.4,7.6s1.8,7.6,5.4,7.6
			C224.8,311.9,226.7,308.7,226.7,304.3z"/>
		<path class="st0" d="M250.5,294.9h2.3l6.5,11.9l6-11.9h2.4l0.8,18.8h-2.8l-0.5-14.3h-0.1c-1.8,3.7-3.8,7.6-5.6,11.3h-1.1l-6-11.1
			h-0.1c-0.1,4.6-0.4,9.5-0.5,14.1h-2L250.5,294.9z"/>
		<path class="st0" d="M278.5,294.9h10.7l-0.6,2h-7.4v6.6h6.5l-0.5,2h-6.1v6.1h8.5l-0.5,2h-10.6V294.9z"/>
		<path class="st0" d="M302.9,297H297l0.3-2.1h14.2l-0.3,2.1h-5.7v16.7h-2.7V297H302.9z"/>
		<path class="st0" d="M320.2,294.9h4.5c2.5,0,4.3,0.3,5.5,1c1.6,0.9,2.3,2.6,2.3,4.6c0,2.5-1.1,4.5-3.2,5.4l4.3,7.8h-3l-4-7.3h-3.9
			v7.3h-2.6v-18.8H320.2z M325.4,304.3c2.9,0,4.3-1,4.3-3.7s-1.5-3.7-4.4-3.7h-2.5v7.3h2.6V304.3z"/>
		<path class="st0" d="M341.3,304.3c0-5.4,2.9-9.8,8.3-9.8s8.4,4.4,8.4,9.8s-2.9,9.8-8.4,9.8C344.2,314.1,341.3,309.7,341.3,304.3z
			 M355,304.3c0-4.4-1.8-7.6-5.4-7.6s-5.4,3.2-5.4,7.6s1.8,7.6,5.4,7.6S355,308.7,355,304.3z"/>
		<path class="st0" d="M367.2,294.9h5.2c2.6,0,4.1,0.4,5.3,1.2c1.4,0.9,2.3,2.5,2.3,4.7c0,3.8-2.4,5.9-6.8,5.9h-3.3v7h-2.6v-18.8
			L367.2,294.9L367.2,294.9z M372.6,304.6c3,0,4.5-1,4.5-3.8s-1.5-3.9-4.4-3.9h-2.8v7.6L372.6,304.6L372.6,304.6z"/>
		<path class="st0" d="M387.9,304.3c0-5.4,2.9-9.8,8.3-9.8s8.4,4.4,8.4,9.8s-2.9,9.8-8.4,9.8C390.9,314.1,387.9,309.7,387.9,304.3z
			 M401.7,304.3c0-4.4-1.8-7.6-5.4-7.6s-5.4,3.2-5.4,7.6s1.8,7.6,5.4,7.6C399.9,311.9,401.7,308.7,401.7,304.3z"/>
		<path class="st0" d="M413.8,294.9h2.6v16.8h8.1l-0.5,2h-10.2V294.9z"/>
		<path class="st0" d="M433.5,294.9h2.6v18.8h-2.6V294.9z"/>
		<path class="st0" d="M450.8,297h-5.9l0.3-2.1h14.2l-0.3,2.1h-5.7v16.7h-2.7V297H450.8z"/>
		<path class="st0" d="M471.8,295.1l1.8-0.4l7.4,19h-3l-1.9-5.2h-7.2l-1.9,5.2h-2.5L471.8,295.1z M475.3,306.5l-2.9-7.6l-2.8,7.6
			H475.3z"/>
		<path class="st0" d="M489.4,294.9h2l10.3,14v-14h2.3v18.8h-2l-10.3-13.8v13.8h-2.3V294.9z"/>
		<path class="st0" d="M513.2,304.3c0-5.4,2.9-9.8,8.3-9.8c5.4,0,8.4,4.4,8.4,9.8s-2.9,9.8-8.4,9.8
			C516.1,314.1,513.2,309.7,513.2,304.3z M526.9,304.3c0-4.4-1.8-7.6-5.4-7.6c-3.6,0-5.4,3.2-5.4,7.6s1.8,7.6,5.4,7.6
			C525.1,311.9,526.9,308.7,526.9,304.3z"/>
	</g>
	<g>
		<path class="st0" d="M93.1,294.9h10.7l-0.6,2h-7.4v6.6h6.5l-0.5,2h-6.1v6.1h8.5l-0.5,2H93.1V294.9z"/>
		<path class="st0" d="M112.6,313l0.2-2.3c1.5,0.7,3.1,1.2,4.8,1.2c2.4,0,4.2-0.9,4.2-2.9c0-1.8-1.6-2.7-3.6-3.7l-0.7-0.3
			c-2.2-1-4.9-2.3-4.9-5.4c0-3.4,2.9-5.1,6.1-5.1c1.5,0,3.3,0.3,4.5,0.8l-0.2,2.1c-1.2-0.5-2.6-0.8-3.9-0.8c-2.1,0-3.7,0.9-3.7,2.6
			c0,0.8,0.3,1.4,0.9,1.9c0.5,0.5,1.4,0.9,2.3,1.3l1.2,0.6c3,1.4,4.6,3.2,4.6,5.6c0,3.7-2.8,5.4-6.6,5.4
			C115.8,314,114.1,313.7,112.6,313z"/>
		<path class="st0" d="M137.9,297H132l0.3-2.1h14.2l-0.3,2.1h-5.7v16.7h-2.7L137.9,297L137.9,297z"/>
		<path class="st0" d="M158.8,295.1l1.8-0.4l7.4,19h-3l-1.9-5.2H156l-1.9,5.2h-2.5L158.8,295.1z M162.4,306.5l-2.9-7.6l-2.8,7.6
			H162.4z"/>
		<path class="st0" d="M176.5,294.9h4.6c3.4,0,5.2,0.5,6.6,1.3c2.6,1.6,3.9,4.6,3.9,8.1c0,3.7-1.5,6.7-4,8.1
			c-1.4,0.8-3.5,1.3-5.6,1.3h-5.5V294.9z M181.6,311.6c2.1,0,4-0.3,5.3-1.6c1.3-1.3,1.8-3.1,1.8-5.8c0-2.1-0.6-3.9-1.7-5.3
			c-1.2-1.4-3.1-2-5.5-2h-2.3v14.7L181.6,311.6L181.6,311.6z"/>
		<path class="st0" d="M201,294.9h2.6v18.8H201V294.9z"/>
		<path class="st0" d="M212.9,304.3c0-5.4,2.9-9.8,8.3-9.8c5.4,0,8.4,4.4,8.4,9.8s-2.9,9.8-8.4,9.8
			C215.8,314.1,212.9,309.7,212.9,304.3z M226.7,304.3c0-4.4-1.8-7.6-5.4-7.6c-3.6,0-5.4,3.2-5.4,7.6s1.8,7.6,5.4,7.6
			C224.8,311.9,226.7,308.7,226.7,304.3z"/>
		<path class="st0" d="M250.5,294.9h2.3l6.5,11.9l6-11.9h2.4l0.8,18.8h-2.8l-0.5-14.3h-0.1c-1.8,3.7-3.8,7.6-5.6,11.3h-1.1l-6-11.1
			h-0.1c-0.1,4.6-0.4,9.5-0.5,14.1h-2L250.5,294.9z"/>
		<path class="st0" d="M278.5,294.9h10.7l-0.6,2h-7.4v6.6h6.5l-0.5,2h-6.1v6.1h8.5l-0.5,2h-10.6V294.9z"/>
		<path class="st0" d="M302.9,297H297l0.3-2.1h14.2l-0.3,2.1h-5.7v16.7h-2.7V297H302.9z"/>
		<path class="st0" d="M320.2,294.9h4.5c2.5,0,4.3,0.3,5.5,1c1.6,0.9,2.3,2.6,2.3,4.6c0,2.5-1.1,4.5-3.2,5.4l4.3,7.8h-3l-4-7.3h-3.9
			v7.3h-2.6v-18.8H320.2z M325.4,304.3c2.9,0,4.3-1,4.3-3.7s-1.5-3.7-4.4-3.7h-2.5v7.3h2.6V304.3z"/>
		<path class="st0" d="M341.3,304.3c0-5.4,2.9-9.8,8.3-9.8s8.4,4.4,8.4,9.8s-2.9,9.8-8.4,9.8C344.2,314.1,341.3,309.7,341.3,304.3z
			 M355,304.3c0-4.4-1.8-7.6-5.4-7.6s-5.4,3.2-5.4,7.6s1.8,7.6,5.4,7.6S355,308.7,355,304.3z"/>
		<path class="st0" d="M367.2,294.9h5.2c2.6,0,4.1,0.4,5.3,1.2c1.4,0.9,2.3,2.5,2.3,4.7c0,3.8-2.4,5.9-6.8,5.9h-3.3v7h-2.6v-18.8
			L367.2,294.9L367.2,294.9z M372.6,304.6c3,0,4.5-1,4.5-3.8s-1.5-3.9-4.4-3.9h-2.8v7.6L372.6,304.6L372.6,304.6z"/>
		<path class="st0" d="M387.9,304.3c0-5.4,2.9-9.8,8.3-9.8s8.4,4.4,8.4,9.8s-2.9,9.8-8.4,9.8C390.9,314.1,387.9,309.7,387.9,304.3z
			 M401.7,304.3c0-4.4-1.8-7.6-5.4-7.6s-5.4,3.2-5.4,7.6s1.8,7.6,5.4,7.6C399.9,311.9,401.7,308.7,401.7,304.3z"/>
		<path class="st0" d="M413.8,294.9h2.6v16.8h8.1l-0.5,2h-10.2V294.9z"/>
		<path class="st0" d="M433.5,294.9h2.6v18.8h-2.6V294.9z"/>
		<path class="st0" d="M450.8,297h-5.9l0.3-2.1h14.2l-0.3,2.1h-5.7v16.7h-2.7V297H450.8z"/>
		<path class="st0" d="M471.8,295.1l1.8-0.4l7.4,19h-3l-1.9-5.2h-7.2l-1.9,5.2h-2.5L471.8,295.1z M475.3,306.5l-2.9-7.6l-2.8,7.6
			H475.3z"/>
		<path class="st0" d="M489.4,294.9h2l10.3,14v-14h2.3v18.8h-2l-10.3-13.8v13.8h-2.3V294.9z"/>
		<path class="st0" d="M513.2,304.3c0-5.4,2.9-9.8,8.3-9.8c5.4,0,8.4,4.4,8.4,9.8s-2.9,9.8-8.4,9.8
			C516.1,314.1,513.2,309.7,513.2,304.3z M526.9,304.3c0-4.4-1.8-7.6-5.4-7.6c-3.6,0-5.4,3.2-5.4,7.6s1.8,7.6,5.4,7.6
			C525.1,311.9,526.9,308.7,526.9,304.3z"/>
	</g>
</g>
<g>
	<path class="st0" d="M105,157.8l2.5-1l14,36.4h-3.7l-4-10.4H98.6l-3.8,10.4h-3.3L105,157.8z M113,180.4l-6.8-17.9l-6.8,17.9H113z"
		/>
	<path class="st0" d="M132.9,191.3l0.8-2.6c2.4,1.4,5.7,2.6,9.3,2.6c5.1,0,8.6-2.5,8.6-6.9c0-4-3-6-7.4-8.1l-2.1-1
		c-4.1-1.9-8.4-4.1-8.4-9.7c0-6.1,5.3-9.2,11.2-9.2c3.5,0,6.8,1.1,8.6,2.2l-0.8,2.5c-1.7-1-4.8-2.3-8-2.3c-4.6,0-7.5,2.6-7.5,6.3
		c0,3.6,2.8,5.3,6.8,7.2l2.3,1.1c4.9,2.4,8.8,4.7,8.8,10.4c0,6.5-5,10-12.1,10C138.3,193.8,134.8,192.4,132.9,191.3z"/>
	<path class="st0" d="M187.3,157.2h3.3l12.9,24.9l12.1-24.9h3.3l1.9,36h-3.7l-1.4-30.1h-0.2L204,187.2h-1.8l-12.4-24.1h-0.2
		l-0.9,30.1h-3L187.3,157.2z"/>
	<path class="st0" d="M235,175.2c0-10.3,5.4-18.7,15.5-18.7c10.2,0,15.7,8.4,15.7,18.7s-5.4,18.6-15.7,18.6
		C240.4,193.8,235,185.5,235,175.2z M262.1,175.2c0-9.3-3.8-16.2-11.6-16.2c-7.6,0-11.5,7-11.5,16.2c0,9.3,3.8,16.1,11.5,16.1
		C258.3,191.3,262.1,184.5,262.1,175.2z"/>
	<path class="st0" d="M280.7,157.2h2.6l21.6,29.8v-29.8h2.9v36h-2.6l-21.6-29.8v29.8h-2.9V157.2z"/>
	<path class="st0" d="M334.6,157.8l2.5-1l14,36.4h-3.7l-4-10.4h-15.3l-3.8,10.4H321L334.6,157.8z M342.5,180.4l-6.8-17.9l-6.8,17.9
		H342.5z"/>
	<path class="st0" d="M362.3,176c0-11.6,6.7-19.5,16.8-19.5c4.1,0,7.6,1.3,9.2,2.5l-0.6,2.6c-1.8-1.3-4.8-2.6-8.4-2.6
		c-8.1,0-13,6.4-13,16.6c0,8.8,4.2,15.6,13.1,15.6c4,0,6.8-1.3,9.1-2.6l0.6,2.5c-1.1,0.8-5,2.7-10.2,2.7
		C369,193.8,362.3,187.2,362.3,176z"/>
	<path class="st0" d="M401.7,175.2c0-10.3,5.4-18.7,15.5-18.7c10.2,0,15.7,8.4,15.7,18.7s-5.4,18.6-15.7,18.6
		C407.1,193.8,401.7,185.5,401.7,175.2z M428.9,175.2c0-9.3-3.8-16.2-11.6-16.2c-7.6,0-11.5,7-11.5,16.2c0,9.3,3.8,16.1,11.5,16.1
		C425.1,191.3,428.9,184.5,428.9,175.2z"/>
	<path class="st0" d="M464,157.2h19.2l-0.8,2.5h-14.9v14.6h12.8l-0.8,2.5h-12v16.3H464V157.2z"/>
	<path class="st0" d="M494.3,176c0-11.6,6.7-19.5,16.8-19.5c4.1,0,7.6,1.3,9.2,2.5l-0.6,2.6c-1.8-1.3-4.8-2.6-8.4-2.6
		c-8.1,0-13,6.4-13,16.6c0,8.8,4.2,15.6,13.1,15.6c4,0,6.8-1.3,9.1-2.6l0.6,2.5c-1.1,0.8-5,2.7-10.2,2.7
		C501,193.8,494.3,187.2,494.3,176z"/>
</g>
<g>
	<path class="st0" d="M78.7,269.9l0.5-0.6c1.8-2.3,3-3.8,5-6.6c2.7-3.8,2.9-4.9,2.9-6c0-1.8-1-3-3.4-3c-1.2,0-2.6,0.4-3.9,1.1
		l-0.2-1.8c1.3-0.7,3-1.2,4.7-1.2c3.6,0,5.6,2,5.6,4.8c0,2.1-0.8,3.9-3.8,7.7l-3.6,4.5h7.9l-0.6,2.2H78.7V269.9z"/>
	<path class="st0" d="M100,264.7c0-1.4,0.5-3.4,1.3-5.7l2.5-6.9h2.6l-2.3,6.6c0.8-0.3,1.7-0.6,2.9-0.6c3.5,0,5.8,2.5,5.8,6.4
		c0,3.6-2.1,6.6-6.4,6.6C102.3,271.3,100,268.6,100,264.7z M110,264.7c0-3.3-1.3-4.8-3.6-4.8c-2.3,0-3.6,1.6-3.6,4.8
		c0,3.3,1.3,4.8,3.6,4.8C108.7,269.5,110,268,110,264.7z"/>
	<path class="st0" d="M132.9,270.3l0.2-2.3c1.5,0.7,3.1,1.2,4.8,1.2c2.4,0,4.2-0.9,4.2-2.9c0-1.8-1.6-2.7-3.6-3.7l-0.7-0.3
		c-2.2-1-4.9-2.3-4.9-5.4c0-3.4,2.9-5.1,6.1-5.1c1.5,0,3.3,0.3,4.5,0.8l-0.2,2.1c-1.2-0.5-2.6-0.8-3.9-0.8c-2.1,0-3.7,0.9-3.7,2.6
		c0,0.8,0.3,1.4,0.9,1.9c0.5,0.5,1.4,0.9,2.3,1.3l1.2,0.6c3,1.4,4.6,3.2,4.6,5.6c0,3.7-2.8,5.4-6.6,5.4
		C136.2,271.3,134.5,271,132.9,270.3z"/>
	<path class="st0" d="M154,252.2h10.7l-0.6,2h-7.4v6.6h6.5l-0.5,2h-6.1v6.1h8.5l-0.5,2H154V252.2z"/>
	<path class="st0" d="M174.1,252.2h5.2c2.6,0,4.1,0.4,5.3,1.2c1.4,0.9,2.3,2.5,2.3,4.7c0,3.8-2.4,5.9-6.8,5.9h-3.3v7h-2.6V252.2z
		 M179.5,261.9c3,0,4.5-1,4.5-3.8c0-2.8-1.5-3.9-4.4-3.9h-2.8v7.6H179.5z"/>
	<path class="st0" d="M200.2,254.2h-5.9l0.3-2.1h14.2l-0.3,2.1h-5.7V271h-2.7V254.2z"/>
	<path class="st0" d="M217.5,252.2h10.7l-0.6,2h-7.4v6.6h6.5l-0.5,2h-6.1v6.1h8.5l-0.5,2h-10.6V252.2z"/>
	<path class="st0" d="M238.1,252.2h2.3l6.5,11.9l6-11.9h2.4l0.8,18.8h-2.8l-0.5-14.3h-0.1c-1.8,3.7-3.8,7.6-5.6,11.3H246l-6-11.1
		h-0.1c-0.1,4.6-0.4,9.5-0.5,14.1h-2L238.1,252.2z"/>
	<path class="st0" d="M266,252.2h5.1c4.9,0,6.6,1.6,6.6,4.5c0,1.8-1.1,3.7-3.4,4.1v0.1c3.1,0.2,4.9,2.5,4.9,4.8
		c0,3.1-1.9,5.3-7.4,5.3H266V252.2z M270.9,260c3,0,4.1-1.1,4.1-2.9c0-1.9-1-2.9-4-2.9h-2.2v5.8H270.9z M271.9,268.9
		c3.1,0,4.4-1.1,4.4-3.4c0-2.2-1.3-3.4-4.6-3.4h-3v6.8H271.9z"/>
	<path class="st0" d="M288.3,252.2H299l-0.6,2H291v6.6h6.5l-0.5,2H291v6.1h8.5l-0.5,2h-10.6V252.2z"/>
	<path class="st0" d="M308.5,252.2h4.5c2.5,0,4.3,0.3,5.5,1c1.6,0.9,2.3,2.6,2.3,4.6c0,2.5-1.1,4.5-3.2,5.4l4.4,7.8h-3l-4-7.3h-3.9
		v7.3h-2.6V252.2z M313.7,261.6c2.9,0,4.3-1,4.3-3.7c0-2.7-1.5-3.7-4.3-3.7h-2.5v7.3H313.7z"/>
	<path class="st0" d="M342,269.9l0.5-0.6c1.8-2.3,3-3.8,5-6.6c2.7-3.8,2.8-4.9,2.8-6c0-1.8-1-3-3.4-3c-1.2,0-2.6,0.4-3.9,1.1
		l-0.2-1.8c1.3-0.7,3-1.2,4.7-1.2c3.6,0,5.6,2,5.6,4.8c0,2.1-0.8,3.9-3.8,7.7l-3.6,4.5h7.9l-0.6,2.2H342V269.9z"/>
	<path class="st0" d="M362.9,261.6c0-5.8,2.3-9.8,6.6-9.8c4.3,0,6.6,4,6.6,9.8c0,5.8-2.3,9.8-6.6,9.8
		C365.3,271.3,362.9,267.4,362.9,261.6z M373.4,261.6c0-4.8-1-7.9-3.9-7.9c-2.9,0-3.8,3-3.8,7.9c0,4.8,1,7.9,3.8,7.9
		C372.5,269.4,373.4,266.4,373.4,261.6z"/>
	<path class="st0" d="M387.6,268.9h3.2v-14.2l-3,0.7v-2.2l5.7-1.2v16.9h3.6l-0.5,2.1h-8.9V268.9z"/>
	<path class="st0" d="M407,265.5c0-2,1-3.8,2.5-4.6v0c-1.3-0.8-2-2.1-2-3.8c0-3.3,2.4-5.2,5.8-5.2c3.3,0,5.7,1.9,5.7,5.2
		c0,1.7-0.7,3-2,3.9c1.6,0.8,2.6,2.7,2.6,4.6c0,3.8-2.7,5.8-6.3,5.8C409.7,271.3,407,269.3,407,265.5z M417,265.6
		c0-2.7-1.3-3.8-3.6-3.8c-2.3,0-3.6,1.1-3.6,3.8c0,2.5,1.3,3.8,3.6,3.8C415.6,269.4,417,268.1,417,265.6z M416.7,257
		c0-2.3-1.2-3.3-3.3-3.3c-2.1,0-3.3,1-3.3,3.3c0,2.2,1.2,3.3,3.3,3.3C415.4,260.2,416.7,259.2,416.7,257z"/>
	<path class="st0" d="M429.5,268.9l2.5-0.5v3l-1.7,4.9h-0.9V268.9z"/>
	<path class="st0" d="M453.6,269.9l0.5-0.6c1.8-2.3,3-3.8,5-6.6c2.7-3.8,2.8-4.9,2.8-6c0-1.8-1-3-3.4-3c-1.2,0-2.6,0.4-3.9,1.1
		l-0.2-1.8c1.3-0.7,3-1.2,4.7-1.2c3.6,0,5.6,2,5.6,4.8c0,2.1-0.8,3.9-3.8,7.7l-3.6,4.5h7.9l-0.6,2.2h-10.9V269.9z"/>
	<path class="st0" d="M477.3,268.9h3.2v-14.2l-3,0.7v-2.2l5.7-1.2v16.9h3.6l-0.5,2.1h-8.9V268.9z"/>
	<path class="st0" d="M497.2,259.1l2.5-0.5v2.7h-2.5V259.1z M497.2,268.8l2.5-0.5v2.7h-2.5V268.8z"/>
	<path class="st0" d="M509.2,261.6c0-5.8,2.3-9.8,6.6-9.8c4.3,0,6.6,4,6.6,9.8c0,5.8-2.3,9.8-6.6,9.8
		C511.5,271.3,509.2,267.4,509.2,261.6z M519.6,261.6c0-4.8-1-7.9-3.9-7.9c-2.9,0-3.8,3-3.8,7.9c0,4.8,1,7.9,3.8,7.9
		C518.7,269.4,519.6,266.4,519.6,261.6z"/>
	<path class="st0" d="M531,261.6c0-5.8,2.3-9.8,6.6-9.8c4.3,0,6.6,4,6.6,9.8c0,5.8-2.3,9.8-6.6,9.8C533.3,271.3,531,267.4,531,261.6
		z M541.5,261.6c0-4.8-1-7.9-3.9-7.9c-2.9,0-3.8,3-3.8,7.9c0,4.8,1,7.9,3.8,7.9C540.5,269.4,541.5,266.4,541.5,261.6z"/>
</g>
</svg>
